<?xml version="1.0" encoding="utf-8"?>
<!-- Generator: Adobe Illustrator 19.1.0, SVG Export Plug-In . SVG Version: 6.00 Build 0)  -->
<svg version="1.1" xmlns="http://www.w3.org/2000/svg" xmlns:xlink="http://www.w3.org/1999/xlink" x="0px" y="0px"
	 viewBox="0 0 842.8 256.7" style="enable-background:new 0 0 842.8 256.7;" xml:space="preserve">
<style type="text/css">
	.st0{fill:#B9B9B9;}
	.st1{fill:#545454;}
	.st2{fill:#1072BA;}
	.st3{fill:#E21D3F;}
</style>
<g id="Layer_2">
</g>
<g id="Layer_1">
	<g>
		<circle class="st0" cx="183" cy="83.7" r="13"/>
		<path class="st0" d="M182.6,99H201c0,0,12-0.3,12,13.7s0,45.6,0,45.6s0.6,4.7-5.3,4.7c-6.4,0-5.7-4.7-5.7-4.7v-38.4
			c0,0-0.5-1.3-1.5-1.3c-1.1,0-1.5,1.3-1.5,1.3v103c0,0,0.6,5.8-7.4,5.8c-7.8,0-7.6-5.8-7.6-5.8v-57.7c0,0,0.2-1.7-1-1.7
			c-1.1,0-1,1.4-1,1.9v57.5c0,0-0.6,5.8-8.6,5.8c-8.1,0-8.4-5.8-8.4-5.8v-103c0,0,0.1-1.3-1-1.3c-1.1,0-1,1.3-1,1.3v38.4
			c0,0-0.5,4.5-5.7,4.5c-5.2,0-6.3-3.1-6.3-4.5v-44.9c0,0-0.5-14.3,14.6-14.3L182.6,99z"/>
	</g>
	<g>
		<circle class="st0" cx="108.5" cy="75.5" r="13.8"/>
		<path class="st0" d="M108,92h19.5c0,0,13.5-0.6,13.5,14.1s0,48.1,0,48.1s0,5-6.3,5c-6.8,0-6.7-5-6.7-5v-40.6c0,0,0.1-1.4-1-1.4
			c-1.2,0-1,1.4-1,1.4v108.8c0,0,0.6,6.2-7.9,6.2c-8.2,0-8.1-6.2-8.1-6.2v-61c0,0-0.3-1.8-1.5-1.8c-1.2,0-1.5,1.5-1.5,2v60.8
			c0,0-0.1,6.2-8.6,6.2c-8.6,0-8.4-6.2-8.4-6.2V113.7c0,0,0.2-1.4-1-1.4s-1,1.4-1,1.4v40.6c0,0-0.7,4.7-6.2,4.7
			c-5.5,0-6.8-3.2-6.8-4.7v-47.4c0,0-0.7-14.9,15.3-14.9L108,92z"/>
	</g>
	<g>
		<circle class="st0" cx="38.8" cy="96.4" r="11.9"/>
		<path class="st0" d="M38.4,111h16.8c0,0,11.8-0.9,11.8,11.8s0,41.6,0,41.6s0.1,4.3-5.3,4.3c-5.9,0-5.7-4.3-5.7-4.3v-35
			c0,0-0.1-1.2-1-1.2c-1,0-1,1.2-1,1.2v93.9c0,0-0.1,5.3-7.4,5.3c-7.1,0-7.6-5.3-7.6-5.3v-52.7c0,0,0.6-1.5-0.5-1.5
			c-1,0-0.5,1.3-0.5,1.7v52.5c0,0-0.3,5.3-7.6,5.3c-7.4,0-7.4-5.3-7.4-5.3v-93.9c0,0,0-1.2-1-1.2c-1,0-1,1.2-1,1.2v35
			c0,0-0.5,4.1-5.2,4.1s-5.8-2.8-5.8-4.1v-40.9c0,0-0.6-12.7,13.1-12.7L38.4,111z"/>
	</g>
	<g>
		<circle class="st0" cx="801.2" cy="96.4" r="11.9"/>
		<path class="st0" d="M800.8,111h16.8c0,0,11.4-0.9,11.4,11.8s0,41.6,0,41.6s0.6,4.3-4.8,4.3c-5.9,0-5.2-4.3-5.2-4.3v-35
			c0,0-0.6-1.2-1.5-1.2c-1,0-1.5,1.2-1.5,1.2v93.9c0,0,0.4,5.3-6.9,5.3c-7.1,0-7.1-5.3-7.1-5.3v-52.7c0,0,0.1-1.5-1-1.5
			c-1,0-1,1.3-1,1.7v52.5c0,0-0.3,5.3-7.6,5.3c-7.4,0-7.4-5.3-7.4-5.3v-93.9c0,0,0-1.2-1-1.2c-1,0-1,1.2-1,1.2v35
			c0,0-0.5,4.1-5.2,4.1c-4.7,0-5.8-2.8-5.8-4.1v-40.9c0,0-0.5-12.7,13.3-12.7L800.8,111z"/>
		<circle class="st0" cx="729.5" cy="75.5" r="13.8"/>
		<path class="st0" d="M729,92h19.5c0,0,13.5-0.6,13.5,14.1s0,48.1,0,48.1s0,5-6.3,5c-6.8,0-6.7-5-6.7-5v-40.6c0,0,0.1-1.4-1-1.4
			c-1.2,0-1,1.4-1,1.4v108.8c0,0,0.6,6.2-7.9,6.2c-8.2,0-8.1-6.2-8.1-6.2v-61c0,0-0.3-1.8-1.5-1.8c-1.2,0-1.5,1.5-1.5,2v60.8
			c0,0-0.1,6.2-8.6,6.2c-8.6,0-8.4-6.2-8.4-6.2V113.7c0,0,0.2-1.4-1-1.4c-1.1,0-1,1.4-1,1.4v40.6c0,0-0.7,4.7-6.2,4.7
			s-6.8-3.2-6.8-4.7v-47.4c0,0-0.7-14.9,15.3-14.9L729,92z"/>
		<circle class="st0" cx="657.7" cy="86.2" r="12.8"/>
		<path class="st0" d="M657.2,102h18.1c0,0,12.7-1,12.7,12.7s0,44.8,0,44.8s0,4.6-5.8,4.6c-6.3,0-6.2-4.6-6.2-4.6v-37.7
			c0,0,0-1.3-1-1.3c-1.1,0-1,1.3-1,1.3v101.2c0,0,0,5.7-7.9,5.7c-7.6,0-8.1-5.7-8.1-5.7v-56.7c0,0,0.2-1.7-1-1.7c-1.1,0-1,1.4-1,1.8
			v56.5c0,0,0.3,5.7-7.6,5.7c-8,0-7.4-5.7-7.4-5.7V121.7c0,0,0.1-1.3-1-1.3s-1,1.3-1,1.3v37.7c0,0-0.6,4.4-5.7,4.4
			c-5.1,0-6.3-3-6.3-4.4v-44.1c0,0-0.9-13.6,14-13.6L657.2,102z"/>
	</g>
	<g>
		<circle class="st1" cx="1723.1" cy="-202.7" r="16.8"/>
		<path class="st1" d="M1705.9-155.3c0,0,1.2-3-0.2-3.4c-2.1-0.7-2.5,1.9-2.5,1.9l-14,41.1c0,0-1.6,5.4-8.4,3.9
			c-4.4-1-3.4-7.3-3.4-7.3l17.6-52.4c0,0,2-11.6,16.6-11.6l11.8,0.2c0,0,9.3,0,16,0c6.7,0,10.5,8.2,10.5,8.2l18.5,54.2
			c0,0,2.2,7.6-1.9,8.9c-6.8,2.1-8.6-6.7-8.6-6.7l-12-39.1c0,0-0.7-2.8-2.8-2c-1.9,0.7-1.1,2.6-1.1,2.6l23.9,79.8h-26.5l0.3,62.5
			c0,0,0.3,8-5.8,8c-8.4,0-8.1-7.8-8.1-7.8l0.5-62.7h-2.9l-0.2,62.7c0,0,1.3,7.9-7.2,7.9c-9.1,0-7.8-8-7.8-8v-62.8l-27.5,0.4
			L1705.9-155.3z"/>
	</g>
	<g>
		<g>
			<circle class="st2" cx="482.2" cy="40.5" r="19.4"/>
			<path class="st2" d="M481.5,64H509c0,0,19-1.1,19,19.7s0,68,0,68s0.2,7-8.6,7c-9.6,0-9.4-7-9.4-7V94.4c0,0,0-2-1.5-2
				c-1.6,0-1.5,2-1.5,2V248c0,0,0.7,8.7-11.4,8.7c-11.6,0-11.6-8.7-11.6-8.7v-86.1c0,0-0.2-2.5-2-2.5c-1.7,0-2,2.1-2,2.8V248
				c0,0-0.2,8.7-12.2,8.7c-12.2,0-11.8-8.7-11.8-8.7V94.4c0,0,0.1-2-1.5-2c-1.6,0-1.5,2-1.5,2v57.3c0,0-0.8,6.7-8.6,6.7
				s-9.4-4.6-9.4-6.7V84.8c0,0-1.1-20.9,21.5-20.9L481.5,64z"/>
		</g>
	</g>
	<g>
		<g>
			<circle class="st3" cx="578.6" cy="61.4" r="17.6"/>
			<path class="st3" d="M578,82h24.8c0,0,17.2-0.3,17.2,18.4s0,61.4,0,61.4s0.3,6.4-7.7,6.4c-8.7,0-8.3-6.4-8.3-6.4v-51.7
				c0,0-0.1-1.8-1.5-1.8c-1.5,0-1.5,1.8-1.5,1.8v138.8c0,0,0.5,7.9-10.4,7.9c-10.5,0-10.6-7.9-10.6-7.9v-77.8c0,0,0.1-2.3-1.5-2.3
				c-1.5,0-1.5,1.9-1.5,2.5v77.6c0,0-0.3,7.9-11.2,7.9c-11,0-10.8-7.9-10.8-7.9V110.1c0,0,0-1.8-1.5-1.8s-1.5,1.8-1.5,1.8v51.7
				c0,0-0.6,6-7.6,6s-8.4-4.1-8.4-6v-60.5c0,0-1-19.2,19.4-19.2L578,82z"/>
		</g>
	</g>
	<g>
		<g>
			<circle class="st2" cx="270.2" cy="67.7" r="17"/>
			<path class="st2" d="M269.7,88h24c0,0,17.3-0.7,17.3,17.5s0,59.4,0,59.4s0,6.2-7.7,6.2c-8.4,0-8.3-6.2-8.3-6.2v-50.1
				c0,0-0.2-1.7-1.5-1.7c-1.4,0-1.5,1.7-1.5,1.7v134.3c0,0,0.6,7.6-9.9,7.6c-10.1,0-10.1-7.6-10.1-7.6v-75.3c0,0-0.5-2.2-2-2.2
				c-1.5,0-2,1.8-2,2.4v75.1c0,0-0.2,7.6-10.7,7.6c-10.6,0-10.3-7.6-10.3-7.6V114.8c0,0,0.4-1.7-1-1.7s-1,1.7-1,1.7v50.1
				c0,0-0.9,5.9-7.6,5.9s-8.4-4-8.4-5.9v-58.5c0,0-0.9-18.4,18.8-18.4L269.7,88z"/>
		</g>
	</g>
	<g>
		<g>
			<circle class="st3" cx="380.2" cy="54.5" r="18.1"/>
			<path class="st3" d="M379.6,76h25.6c0,0,17.9-0.6,17.9,18.7s0,63.2,0,63.2s0,6.6-8.2,6.6c-8.9,0-8.8-6.6-8.8-6.6v-53.3
				c0,0-0.1-1.8-1.5-1.8c-1.5,0-1.5,1.8-1.5,1.8v142.9c0,0,0.8,8.1-10.4,8.1c-10.8,0-10.6-8.1-10.6-8.1v-80.1c0,0,0.1-2.3-1.5-2.3
				c-1.6,0-1.5,2-1.5,2.6v79.9c0,0-0.5,8.1-11.7,8.1c-11.3,0-11.3-8.1-11.3-8.1V104.7c0,0,0.5-1.8-1-1.8s-1,1.8-1,1.8v53.3
				c0,0-1.4,6.2-8.6,6.2c-7.2,0-9.4-4.3-9.4-6.2V95.7c0,0-0.8-19.7,20.1-19.7L379.6,76z"/>
		</g>
	</g>
</g>
<g id="Layer_3">
</g>
</svg>
