<?xml version="1.0" encoding="utf-8"?>
<!-- Generator: Adobe Illustrator 19.1.0, SVG Export Plug-In . SVG Version: 6.00 Build 0)  -->
<svg version="1.1" id="Layer_1" xmlns="http://www.w3.org/2000/svg" xmlns:xlink="http://www.w3.org/1999/xlink" x="0px" y="0px"
	 viewBox="0 0 266.9 266.9" style="enable-background:new 0 0 266.9 266.9;" xml:space="preserve">
<style type="text/css">
	.st0{fill:#FFFFFF;}
</style>
<path class="st0" d="M262.5,53.4c-9.5,4.2-19.7,7.1-30.4,8.3c10.9-6.6,19.3-16.9,23.3-29.3c-10.2,6.1-21.6,10.5-33.6,12.9
	c-9.7-10.3-23.4-16.7-38.7-16.7c-29.3,0-53,23.7-53,53c0,4.2,0.5,8.2,1.4,12.1c-44-2.2-83-23.3-109.2-55.3
	c-4.6,7.8-7.2,16.9-7.2,26.6c0,18.4,9.4,34.6,23.6,44.1c-8.7-0.3-16.8-2.7-24-6.6c0,0.2,0,0.4,0,0.7c0,25.7,18.3,47.1,42.5,51.9
	c-4.4,1.2-9.1,1.9-14,1.9c-3.4,0-6.7-0.3-10-0.9c6.7,21,26.3,36.4,49.5,36.8c-18.1,14.2-41,22.7-65.8,22.7c-4.3,0-8.5-0.3-12.6-0.7
	c23.4,15,51.3,23.8,81.2,23.8c97.4,0,150.7-80.7,150.7-150.7c0-2.3-0.1-4.6-0.2-6.9C246.5,73.3,255.4,64,262.5,53.4z"/>
</svg>
